<svg xmlns="http://www.w3.org/2000/svg" viewBox="0 0 1612 1062">
	<g id="no-connection">
		<path d="M1356,108c56.57,0,112.33,11,162.91,31.87L1356,384,1193.09,139.87C1243.67,119,1299.43,108,1356,108m0-25c-72.86,0-141.17,16.88-200,46.32L1356,429l200-299.68C1497.17,99.88,1428.86,83,1356,83Z"/>
		<rect fill="none" x="1100" width="512" height="512"/>
	</g>
	<g id="signal-4">
		<path d="M806,658c56.57,0,112.33,11,162.91,31.87L806,934,643.09,689.87C693.67,669,749.43,658,806,658m0-25c-72.86,0-141.17,16.88-200,46.32L806,979l200-299.68C947.17,649.88,878.86,633,806,633Z"/>
		<path d="M643.09,689.87,806,934,968.91,689.87C918.33,669,862.57,658,806,658S693.67,669,643.09,689.87Z"/>
		<rect fill="none" x="550" y="550" width="512" height="512"/>
	</g>
	<g id="signal-3">
		<path d="M256,658c56.57,0,112.33,11,162.91,31.87L256,934,93.09,689.87C143.67,669,199.43,658,256,658m0-25c-72.86,0-141.17,16.88-200,46.32L256,979,456,679.32C397.17,649.88,328.86,633,256,633Z"/>
		<path d="M133.68,750.68,256,934,378.32,750.68a324.59,324.59,0,0,0-244.64,0Z"/>
		<rect fill="none" y="550" width="512" height="512"/>
	</g>
	<g id="signal-2">
		<path d="M806,108c56.57,0,112.33,11,162.91,31.87L806,384,643.09,139.87C693.67,119,749.43,108,806,108m0-25c-72.86,0-141.17,16.88-200,46.32L806,429l200-299.68C947.17,99.88,878.86,83,806,83Z"/>
		<path d="M724.26,261.49,806,384l81.74-122.47a216.92,216.92,0,0,0-163.48,0Z"/>
		<rect fill="none" x="550" width="512" height="512"/>
	</g>
	<g id="signal-1">
		<path d="M256,108c56.57,0,112.33,11,162.91,31.87L256,384,93.09,139.87C143.67,119,199.43,108,256,108m0-25c-72.86,0-141.17,16.88-200,46.32L256,429,456,129.32C397.17,99.88,328.86,83,256,83Z"/>
		<path d="M215.42,323.15,256,384l40.58-60.81a107.67,107.67,0,0,0-81.16,0Z"/>
		<rect fill="none" width="512" height="512"/>
	</g>
</svg>
