<svg id="Layer_1" data-name="Layer 1" xmlns="http://www.w3.org/2000/svg" viewBox="0 0 6012 1062"><defs><style>.cls-1{fill:none;}</style></defs><title>battery</title><g id="percentage-0-charging"><rect class="cls-1" x="5500" y="550" width="512" height="512"/><path d="M5796,631V606h-80v25h-77.19v375h234.38V631Zm52.19,350H5663.81V656h184.38Z" transform="translate(0)"/><polygon points="5772.67 710.17 5772.67 801.83 5806 801.83 5739.33 926.83 5739.33 835.17 5706 835.17 5772.67 710.17"/></g><g id="percentage-10-charging"><rect x="5106" y="948.5" width="200" height="32.5"/><rect class="cls-1" x="4950" y="550" width="512" height="512"/><path d="M5246,631V606h-80v25h-77.19v375h234.38V631Zm52.19,350H5113.81V656h184.38Z" transform="translate(0)"/><polygon points="5222.67 710.17 5222.67 801.83 5256 801.83 5189.33 926.83 5189.33 835.17 5156 835.17 5222.67 710.17"/></g><g id="percentage-20-charging"><rect x="4556" y="916" width="200" height="65"/><rect class="cls-1" x="4400" y="550" width="512" height="512"/><path d="M4696,631V606h-80v25h-77.19v375h234.38V631Zm52.19,350H4563.81V656h184.38Z" transform="translate(0)"/><polygon points="4672.67 710.17 4672.67 801.83 4706 801.83 4639.33 926.83 4639.33 835.17 4606 835.17 4672.67 710.17"/></g><g id="percentage-30-charging"><rect x="4006" y="883.5" width="200" height="97.5"/><rect class="cls-1" x="3850" y="550" width="512" height="512"/><path d="M4146,631V606h-80v25h-77.19v375h234.38V631Zm52.19,350H4013.81V656h184.38Z" transform="translate(0)"/><polygon points="4122.67 710.17 4122.67 801.83 4156 801.83 4089.33 926.83 4089.33 835.17 4056 835.17 4122.67 710.17"/></g><g id="percenateg-40-charging"><rect x="3456" y="851" width="200" height="130"/><rect class="cls-1" x="3300" y="550" width="512" height="512"/><path d="M3596,631V606h-80v25h-77.19v375h234.38V631Zm52.19,350H3463.81V656h184.38Z" transform="translate(0)"/><polygon points="3572.67 710.17 3572.67 801.83 3606 801.83 3539.33 926.83 3539.33 835.17 3506 835.17 3572.67 710.17"/></g><g id="percentage-50-charging"><rect x="2906" y="818.5" width="200" height="162.5"/><rect class="cls-1" x="2750" y="550" width="512" height="512"/><path d="M3046,631V606h-80v25h-77.19v375h234.38V631Zm52.19,350H2913.81V656h184.38Z" transform="translate(0)"/><polygon points="3022.67 710.17 3022.67 801.83 3056 801.83 2989.33 926.83 2989.33 835.17 2956 835.17 3022.67 710.17"/></g><g id="percentage-60-charging"><rect x="2356" y="786" width="200" height="195"/><rect class="cls-1" x="2200" y="550" width="512" height="512"/><path d="M2496,631V606h-80v25h-77.19v375h234.38V631Zm52.19,350H2363.81V656h184.38Z" transform="translate(0)"/><polygon points="2472.67 710.17 2472.67 801.83 2506 801.83 2439.33 926.83 2439.33 835.17 2406 835.17 2472.67 710.17"/></g><g id="percentage-70-charging"><rect x="1806" y="753.5" width="200" height="227.5"/><rect class="cls-1" x="1650" y="550" width="512" height="512"/><path d="M1946,631V606h-80v25h-77.19v375h234.38V631Zm52.19,350H1813.81V656h184.38Z" transform="translate(0)"/><polygon points="1922.67 710.17 1922.67 801.83 1956 801.83 1889.33 926.83 1889.33 835.17 1856 835.17 1922.67 710.17"/></g><g id="percentage-80-charging"><rect x="1256" y="721" width="200" height="260"/><rect class="cls-1" x="1100" y="550" width="512" height="512"/><path d="M1396,631V606h-80v25h-77.19v375h234.38V631Zm52.19,350H1263.81V656h184.38Z" transform="translate(0)"/><polygon points="1372.67 710.17 1372.67 801.83 1406 801.83 1339.33 926.83 1339.33 835.17 1306 835.17 1372.67 710.17"/></g><g id="percentage-90-charging"><path d="M846,631V606H766v25H688.81v375H923.19V631Zm52.19,350H713.81V656H898.19Z" transform="translate(0)"/><rect x="706" y="688.5" width="200" height="292.5"/><rect class="cls-1" x="550" y="550" width="512" height="512"/><polygon points="822.67 710.17 822.67 801.83 856 801.83 789.33 926.83 789.33 835.17 756 835.17 822.67 710.17"/></g><g id="percentage-100-charging"><rect x="156" y="656" width="200" height="325"/><path d="M296,631V606H216v25H138.81v375H373.19V631Zm52.19,350H163.81V656H348.19Z" transform="translate(0)"/><polygon points="272.67 710.17 272.67 801.83 306 801.83 239.33 926.83 239.33 835.17 206 835.17 272.67 710.17"/><rect class="cls-1" y="550" width="512" height="512"/></g><g id="percentage-0"><rect class="cls-1" x="5500" width="512" height="512"/><path d="M5796,81V56h-80V81h-77.19V456h234.38V81Zm52.19,350H5663.81V106h184.38Z" transform="translate(0)"/></g><g id="percentage-10"><rect x="5106" y="398.5" width="200" height="32.5"/><rect class="cls-1" x="4950" width="512" height="512"/><path d="M5246,81V56h-80V81h-77.19V456h234.38V81Zm52.19,350H5113.81V106h184.38Z" transform="translate(0)"/></g><g id="percentage-20"><rect x="4556" y="366" width="200" height="65"/><rect class="cls-1" x="4400" width="512" height="512"/><path d="M4696,81V56h-80V81h-77.19V456h234.38V81Zm52.19,350H4563.81V106h184.38Z" transform="translate(0)"/></g><g id="percentage-30"><rect x="4006" y="333.5" width="200" height="97.5"/><rect class="cls-1" x="3850" width="512" height="512"/><path d="M4146,81V56h-80V81h-77.19V456h234.38V81Zm52.19,350H4013.81V106h184.38Z" transform="translate(0)"/></g><g id="percentage-40"><rect x="3456" y="301" width="200" height="130"/><rect class="cls-1" x="3300" width="512" height="512"/><path d="M3596,81V56h-80V81h-77.19V456h234.38V81Zm52.19,350H3463.81V106h184.38Z" transform="translate(0)"/></g><g id="percentage-50"><rect x="2906" y="268.5" width="200" height="162.5"/><rect class="cls-1" x="2750" width="512" height="512"/><path d="M3046,81V56h-80V81h-77.19V456h234.38V81Zm52.19,350H2913.81V106h184.38Z" transform="translate(0)"/></g><g id="percentage-60"><rect x="2356" y="236" width="200" height="195"/><rect class="cls-1" x="2200" width="512" height="512"/><path d="M2496,81V56h-80V81h-77.19V456h234.38V81Zm52.19,350H2363.81V106h184.38Z" transform="translate(0)"/></g><g id="percentage-70"><rect x="1806" y="203.5" width="200" height="227.5"/><rect class="cls-1" x="1650" width="512" height="512"/><path d="M1946,81V56h-80V81h-77.19V456h234.38V81Zm52.19,350H1813.81V106h184.38Z" transform="translate(0)"/></g><g id="percentage-80"><rect x="1256" y="171" width="200" height="260"/><rect class="cls-1" x="1100" width="512" height="512"/><path d="M1396,81V56h-80V81h-77.19V456h234.38V81Zm52.19,350H1263.81V106h184.38Z" transform="translate(0)"/></g><g id="percentage-90"><path d="M846,81V56H766V81H688.81V456H923.19V81Zm52.19,350H713.81V106H898.19Z" transform="translate(0)"/><rect x="706" y="138.5" width="200" height="292.5"/><rect class="cls-1" x="550" width="512" height="512"/></g><g id="percentage-100"><rect x="156" y="106" width="200" height="325"/><rect class="cls-1" width="512" height="512"/><path d="M296,81V56H216V81H138.81V456H373.19V81Zm52.19,350H163.81V106H348.19Z" transform="translate(0)"/></g></svg>