<svg id="Layer_1" data-name="Layer 1" xmlns="http://www.w3.org/2000/svg" viewBox="0 0 1612 1062"><defs><style>.cls-1{fill:none;}.cls-2{fill:#fff;}</style></defs><title>speaker</title><g id="volume-3"><path d="M1406,169.38V342.62a100,100,0,0,0,0-173.24Z"/><path d="M1406,62.3v52.25a150,150,0,0,1,0,282.9V449.7c86.26-22.2,150-100.51,150-193.7S1492.26,84.5,1406,62.3Z"/><rect class="cls-1" x="1100" width="512" height="512"/><polygon points="1356 79 1242.15 193.5 1156 193.5 1156 318.5 1242.15 318.5 1356 433 1356 79"/></g><g id="volume-3-off"><polygon points="1356 629 1242.15 743.5 1156 743.5 1156 868.5 1242.15 868.5 1356 983 1356 629"/><path d="M1406,719.38V892.62a100,100,0,0,0,0-173.24Z"/><path d="M1406,612.3v52.25a150,150,0,0,1,0,282.9V999.7c86.26-22.2,150-100.51,150-193.7S1492.26,634.5,1406,612.3Z"/><rect class="cls-1" x="1100" y="550" width="512" height="512"/><rect x="1091.34" y="802.16" width="512" height="25" transform="translate(970.68 -714.1) rotate(45)"/><rect class="cls-2" x="1108.66" y="784.84" width="512" height="25" transform="translate(963.5 -731.43) rotate(45)"/></g><g id="volume-2"><path d="M856,169.38V342.62a100,100,0,0,0,0-173.24Z"/><rect class="cls-1" x="550" width="512" height="512"/><polygon points="806 79 692.15 193.5 606 193.5 606 318.5 692.15 318.5 806 433 806 79"/></g><g id="volume-2-off"><polygon points="806 629 692.15 743.5 606 743.5 606 868.5 692.15 868.5 806 983 806 629"/><path d="M856,719.38V892.62a100,100,0,0,0,0-173.24Z"/><rect class="cls-1" x="550" y="550" width="512" height="512"/><rect x="541.34" y="802.16" width="512" height="25" transform="translate(809.59 -325.19) rotate(45)"/><rect class="cls-2" x="558.66" y="784.84" width="512" height="25" transform="translate(802.41 -342.52) rotate(45)"/></g><g id="volume-1"><polygon points="256 79 142.15 193.5 56 193.5 56 318.5 142.15 318.5 256 433 256 79"/><rect class="cls-1" width="512" height="512"/></g><g id="volume-1-off"><polygon points="256 629 142.15 743.5 56 743.5 56 868.5 142.15 868.5 256 983 256 629"/><rect class="cls-1" y="550" width="512" height="512"/><rect x="-8.66" y="802.16" width="512" height="25" transform="translate(648.5 63.71) rotate(45)"/><rect class="cls-2" x="8.66" y="784.84" width="512" height="25" transform="translate(641.32 46.39) rotate(45)"/></g></svg>