<svg id="Layer_1" data-name="Layer 1" xmlns="http://www.w3.org/2000/svg" viewBox="0 0 1612 1062"><defs><style>.cls-1{fill:none;}.cls-2{fill:#fff;}</style></defs><title>microphone</title><g id="volume-1"><path d="M380.6,256H355.5a100,100,0,0,1-199,0H131.4A125,125,0,0,0,244,370.43V431H206v25H306V431H269V370.32A125,125,0,0,0,380.6,256Z"/><path d="M256,106a50.06,50.06,0,0,1,50,50v90a50,50,0,0,1-100,0V156a50.06,50.06,0,0,1,50-50m0-25a75,75,0,0,0-75,75v90a75,75,0,0,0,150,0V156a75,75,0,0,0-75-75Z"/><rect class="cls-1" width="512" height="512"/></g><g id="volume-2"><path d="M930.6,256H905.5a100,100,0,0,1-199,0H681.4A125,125,0,0,0,794,370.43V431H756v25H856V431H819V370.32A125,125,0,0,0,930.6,256Z"/><path d="M806,106a50.06,50.06,0,0,1,50,50v90a50,50,0,0,1-100,0V156a50.06,50.06,0,0,1,50-50m0-25h0a75,75,0,0,0-75,75v90a75,75,0,0,0,75,75h0a75,75,0,0,0,75-75V156a75,75,0,0,0-75-75Z"/><path d="M806,321h0a75,75,0,0,1-75-75V201H881v45A75,75,0,0,1,806,321Z"/><rect class="cls-1" x="550" width="512" height="512"/></g><g id="volume-3"><path d="M1480.6,256h-25.1a100,100,0,0,1-199,0h-25.1A125,125,0,0,0,1344,370.43V431h-38v25h100V431h-37V370.32A125,125,0,0,0,1480.6,256Z"/><rect x="1281" y="81" width="150" height="240" rx="75" ry="75"/><rect class="cls-1" x="1100" width="512" height="512"/></g><g id="volume-1-off"><path d="M380.6,806H355.5a100,100,0,0,1-199,0H131.4A125,125,0,0,0,244,920.43V981H206v25H306V981H269V920.32A125,125,0,0,0,380.6,806Z"/><path d="M256,656a50.06,50.06,0,0,1,50,50v90a50,50,0,0,1-100,0V706a50.06,50.06,0,0,1,50-50m0-25h0a75,75,0,0,0-75,75v90a75,75,0,0,0,75,75h0a75,75,0,0,0,75-75V706a75,75,0,0,0-75-75Z"/><rect class="cls-1" y="550" width="512" height="512"/><rect x="-8.66" y="802.16" width="512" height="25" transform="translate(648.5 63.71) rotate(45)"/><rect class="cls-2" x="8.66" y="784.84" width="512" height="25" transform="translate(641.32 46.39) rotate(45)"/></g><g id="volume-2-off"><path d="M930.6,806H905.5a100,100,0,0,1-199,0H681.4A125,125,0,0,0,794,920.43V981H756v25H856V981H819V920.32A125,125,0,0,0,930.6,806Z"/><path d="M806,656a50.06,50.06,0,0,1,50,50v90a50,50,0,0,1-100,0V706a50.06,50.06,0,0,1,50-50m0-25h0a75,75,0,0,0-75,75v90a75,75,0,0,0,75,75h0a75,75,0,0,0,75-75V706a75,75,0,0,0-75-75Z"/><path d="M806,871h0a75,75,0,0,1-75-75V751H881v45A75,75,0,0,1,806,871Z"/><rect class="cls-1" x="550" y="550" width="512" height="512"/><rect x="541.34" y="802.16" width="512" height="25" transform="translate(809.59 -325.19) rotate(45)"/><rect class="cls-2" x="558.66" y="784.84" width="512" height="25" transform="translate(802.41 -342.52) rotate(45)"/></g><g id="volume-3-off"><path d="M1480.6,806h-25.1a100,100,0,0,1-199,0h-25.1A125,125,0,0,0,1344,920.43V981h-38v25h100V981h-37V920.32A125,125,0,0,0,1480.6,806Z"/><rect x="1281" y="631" width="150" height="240" rx="75" ry="75"/><rect class="cls-1" x="1100" y="550" width="512" height="512"/><rect x="1091.34" y="802.16" width="512" height="25" transform="translate(970.68 -714.1) rotate(45)"/><rect class="cls-2" x="1108.66" y="784.84" width="512" height="25" transform="translate(963.5 -731.43) rotate(45)"/></g></svg>